<mxfile host="app.diagrams.net">
  <diagram name="Conceptual ERD">
    <mxGraphModel>
      <root>
        <mxCell id="0"/>
        <mxCell id="1" parent="0"/>
        <mxCell id="User" value="User" style="rounded=1;whiteSpace=wrap;html=1;fillColor=#dae8fc;" vertex="1" parent="1"><mxGeometry x="60" y="60" width="120" height="40" as="geometry"/></mxCell>
        <mxCell id="Admin" value="Admin" style="rounded=1;whiteSpace=wrap;html=1;fillColor=#fff2cc;" vertex="1" parent="1"><mxGeometry x="60" y="140" width="120" height="40" as="geometry"/></mxCell>
        <mxCell id="Product" value="Product" style="rounded=1;whiteSpace=wrap;html=1;fillColor=#d5e8d4;" vertex="1" parent="1"><mxGeometry x="300" y="60" width="120" height="40" as="geometry"/></mxCell>
        <mxCell id="Category" value="Category" style="rounded=1;whiteSpace=wrap;html=1;fillColor=#f8cecc;" vertex="1" parent="1"><mxGeometry x="480" y="60" width="120" height="40" as="geometry"/></mxCell>
        <mxCell id="ProductImage" value="ProductImage" style="rounded=1;whiteSpace=wrap;html=1;fillColor=#e1d5e7;" vertex="1" parent="1"><mxGeometry x="300" y="120" width="120" height="40" as="geometry"/></mxCell>
        <mxCell id="ProductVariant" value="ProductVariant" style="rounded=1;whiteSpace=wrap;html=1;fillColor=#e1d5e7;" vertex="1" parent="1"><mxGeometry x="300" y="180" width="120" height="40" as="geometry"/></mxCell>
        <mxCell id="ProductReview" value="ProductReview" style="rounded=1;whiteSpace=wrap;html=1;fillColor=#e1d5e7;" vertex="1" parent="1"><mxGeometry x="300" y="240" width="120" height="40" as="geometry"/></mxCell>
        <mxCell id="ProductComment" value="ProductComment" style="rounded=1;whiteSpace=wrap;html=1;fillColor=#e1d5e7;" vertex="1" parent="1"><mxGeometry x="300" y="300" width="120" height="40" as="geometry"/></mxCell>
        <mxCell id="Wishlist" value="Wishlist" style="rounded=1;whiteSpace=wrap;html=1;fillColor=#fff2cc;" vertex="1" parent="1"><mxGeometry x="60" y="220" width="120" height="40" as="geometry"/></mxCell>
        <mxCell id="Order" value="Order" style="rounded=1;whiteSpace=wrap;html=1;fillColor=#f8cecc;" vertex="1" parent="1"><mxGeometry x="60" y="300" width="120" height="40" as="geometry"/></mxCell>
        <mxCell id="OrderItem" value="OrderItem" style="rounded=1;whiteSpace=wrap;html=1;fillColor=#f8cecc;" vertex="1" parent="1"><mxGeometry x="200" y="300" width="120" height="40" as="geometry"/></mxCell>
        <mxCell id="Coupon" value="Coupon" style="rounded=1;whiteSpace=wrap;html=1;fillColor=#f8cecc;" vertex="1" parent="1"><mxGeometry x="60" y="380" width="120" height="40" as="geometry"/></mxCell>
        <mxCell id="CouponUser" value="CouponUser" style="rounded=1;whiteSpace=wrap;html=1;fillColor=#f8cecc;" vertex="1" parent="1"><mxGeometry x="200" y="380" width="120" height="40" as="geometry"/></mxCell>
        <mxCell id="CustomerRank" value="CustomerRank" style="rounded=1;whiteSpace=wrap;html=1;fillColor=#fff2cc;" vertex="1" parent="1"><mxGeometry x="60" y="460" width="120" height="40" as="geometry"/></mxCell>
        <mxCell id="Event" value="Event" style="rounded=1;whiteSpace=wrap;html=1;fillColor=#dae8fc;" vertex="1" parent="1"><mxGeometry x="480" y="180" width="120" height="40" as="geometry"/></mxCell>
        <mxCell id="EventProduct" value="EventProduct" style="rounded=1;whiteSpace=wrap;html=1;fillColor=#dae8fc;" vertex="1" parent="1"><mxGeometry x="480" y="240" width="120" height="40" as="geometry"/></mxCell>
        <mxCell id="EventOrder" value="EventOrder" style="rounded=1;whiteSpace=wrap;html=1;fillColor=#dae8fc;" vertex="1" parent="1"><mxGeometry x="480" y="300" width="120" height="40" as="geometry"/></mxCell>
        <mxCell id="MiniGame" value="MiniGame" style="rounded=1;whiteSpace=wrap;html=1;fillColor=#d5e8d4;" vertex="1" parent="1"><mxGeometry x="700" y="60" width="120" height="40" as="geometry"/></mxCell>
        <mxCell id="MiniGameSpin" value="MiniGameSpin" style="rounded=1;whiteSpace=wrap;html=1;fillColor=#d5e8d4;" vertex="1" parent="1"><mxGeometry x="700" y="120" width="120" height="40" as="geometry"/></mxCell>
        <mxCell id="Voucher" value="Voucher" style="rounded=1;whiteSpace=wrap;html=1;fillColor=#d5e8d4;" vertex="1" parent="1"><mxGeometry x="700" y="180" width="120" height="40" as="geometry"/></mxCell>
        <mxCell id="ProductView" value="ProductView" style="rounded=1;whiteSpace=wrap;html=1;fillColor=#e1d5e7;" vertex="1" parent="1"><mxGeometry x="300" y="360" width="120" height="40" as="geometry"/></mxCell>
        <!-- Relationships -->
        <mxCell id="rel1" style="endArrow=block;html=1;" edge="1" parent="1" source="User" target="Order"><mxGeometry relative="1" as="geometry"/></mxCell>
        <mxCell id="rel2" style="endArrow=block;html=1;" edge="1" parent="1" source="Order" target="OrderItem"><mxGeometry relative="1" as="geometry"/></mxCell>
        <mxCell id="rel3" style="endArrow=block;html=1;" edge="1" parent="1" source="Product" target="OrderItem"><mxGeometry relative="1" as="geometry"/></mxCell>
        <mxCell id="rel4" style="endArrow=block;html=1;" edge="1" parent="1" source="Product" target="Category"><mxGeometry relative="1" as="geometry"/></mxCell>
        <mxCell id="rel5" style="endArrow=block;html=1;" edge="1" parent="1" source="Product" target="ProductImage"><mxGeometry relative="1" as="geometry"/></mxCell>
        <mxCell id="rel6" style="endArrow=block;html=1;" edge="1" parent="1" source="Product" target="ProductVariant"><mxGeometry relative="1" as="geometry"/></mxCell>
        <mxCell id="rel7" style="endArrow=block;html=1;" edge="1" parent="1" source="Product" target="ProductReview"><mxGeometry relative="1" as="geometry"/></mxCell>
        <mxCell id="rel8" style="endArrow=block;html=1;" edge="1" parent="1" source="Product" target="ProductComment"><mxGeometry relative="1" as="geometry"/></mxCell>
        <mxCell id="rel9" style="endArrow=block;html=1;" edge="1" parent="1" source="User" target="Wishlist"><mxGeometry relative="1" as="geometry"/></mxCell>
        <mxCell id="rel10" style="endArrow=block;html=1;" edge="1" parent="1" source="Product" target="Wishlist"><mxGeometry relative="1" as="geometry"/></mxCell>
        <mxCell id="rel11" style="endArrow=block;html=1;" edge="1" parent="1" source="User" target="ProductReview"><mxGeometry relative="1" as="geometry"/></mxCell>
        <mxCell id="rel12" style="endArrow=block;html=1;" edge="1" parent="1" source="User" target="ProductComment"><mxGeometry relative="1" as="geometry"/></mxCell>
        <mxCell id="rel13" style="endArrow=block;html=1;" edge="1" parent="1" source="User" target="CouponUser"><mxGeometry relative="1" as="geometry"/></mxCell>
        <mxCell id="rel14" style="endArrow=block;html=1;" edge="1" parent="1" source="Coupon" target="CouponUser"><mxGeometry relative="1" as="geometry"/></mxCell>
        <mxCell id="rel15" style="endArrow=block;html=1;" edge="1" parent="1" source="User" target="CustomerRank"><mxGeometry relative="1" as="geometry"/></mxCell>
        <mxCell id="rel16" style="endArrow=block;html=1;" edge="1" parent="1" source="Event" target="EventProduct"><mxGeometry relative="1" as="geometry"/></mxCell>
        <mxCell id="rel17" style="endArrow=block;html=1;" edge="1" parent="1" source="Product" target="EventProduct"><mxGeometry relative="1" as="geometry"/></mxCell>
        <mxCell id="rel18" style="endArrow=block;html=1;" edge="1" parent="1" source="Event" target="EventOrder"><mxGeometry relative="1" as="geometry"/></mxCell>
        <mxCell id="rel19" style="endArrow=block;html=1;" edge="1" parent="1" source="Order" target="EventOrder"><mxGeometry relative="1" as="geometry"/></mxCell>
        <mxCell id="rel20" style="endArrow=block;html=1;" edge="1" parent="1" source="User" target="MiniGameSpin"><mxGeometry relative="1" as="geometry"/></mxCell>
        <mxCell id="rel21" style="endArrow=block;html=1;" edge="1" parent="1" source="MiniGame" target="MiniGameSpin"><mxGeometry relative="1" as="geometry"/></mxCell>
        <mxCell id="rel22" style="endArrow=block;html=1;" edge="1" parent="1" source="Voucher" target="MiniGameSpin"><mxGeometry relative="1" as="geometry"/></mxCell>
        <mxCell id="rel23" style="endArrow=block;html=1;" edge="1" parent="1" source="User" target="ProductView"><mxGeometry relative="1" as="geometry"/></mxCell>
        <mxCell id="rel24" style="endArrow=block;html=1;" edge="1" parent="1" source="Product" target="ProductView"><mxGeometry relative="1" as="geometry"/></mxCell>
      </root>
    </mxGraphModel>
  </diagram>
</mxfile> 